<svg width="374" height="125" viewBox="0 0 374 125" fill="none" xmlns="http://www.w3.org/2000/svg">
<path d="M30.6823 83.2473C26.9582 83.2473 24.0956 82.6081 22.0946 81.3297C20.0936 80.0513 18.6206 78.6339 17.6757 77.0775H16.1749V82.0801H5.8363V23.7171H16.3416V45.4781H17.8424C18.4538 44.4776 19.2598 43.5327 20.2603 42.6434C21.3164 41.754 22.6782 41.0314 24.3457 40.4756C26.0688 39.8642 28.181 39.5585 30.6823 39.5585C34.0173 39.5585 37.1022 40.3922 39.937 42.0597C42.7717 43.6717 45.0507 46.0618 46.7738 49.23C48.4969 52.3983 49.3584 56.2336 49.3584 60.7359V62.0699C49.3584 66.5722 48.4969 70.4075 46.7738 73.5758C45.0507 76.744 42.7717 79.1619 39.937 80.8294C37.1022 82.4414 34.0173 83.2473 30.6823 83.2473ZM27.514 74.076C30.7379 74.076 33.4337 73.0477 35.6014 70.9911C37.7692 68.8789 38.8531 65.8218 38.8531 61.8198V60.986C38.8531 56.984 37.7692 53.9547 35.6014 51.8981C33.4893 49.7859 30.7934 48.7298 27.514 48.7298C24.2901 48.7298 21.5943 49.7859 19.4265 51.8981C17.2588 53.9547 16.1749 56.984 16.1749 60.986V61.8198C16.1749 65.8218 17.2588 68.8789 19.4265 70.9911C21.5943 73.0477 24.2901 74.076 27.514 74.076ZM74.5125 83.2473C70.3993 83.2473 66.703 82.4136 63.4235 80.7461C60.1441 79.0786 57.5594 76.6607 55.6696 73.4924C53.7797 70.3241 52.8348 66.5166 52.8348 62.0699V60.7359C52.8348 56.2892 53.7797 52.4817 55.6696 49.3134C57.5594 46.1451 60.1441 43.7272 63.4235 42.0597C66.703 40.3922 70.3993 39.5585 74.5125 39.5585C78.6257 39.5585 82.322 40.3922 85.6015 42.0597C88.8809 43.7272 91.4656 46.1451 93.3554 49.3134C95.2453 52.4817 96.1902 56.2892 96.1902 60.7359V62.0699C96.1902 66.5166 95.2453 70.3241 93.3554 73.4924C91.4656 76.6607 88.8809 79.0786 85.6015 80.7461C82.322 82.4136 78.6257 83.2473 74.5125 83.2473ZM74.5125 73.9093C77.7364 73.9093 80.4044 72.881 82.5166 70.8244C84.6288 68.7122 85.6848 65.7106 85.6848 61.8198V60.986C85.6848 57.0952 84.6288 54.1214 82.5166 52.0648C80.46 49.9526 77.7919 48.8965 74.5125 48.8965C71.2886 48.8965 68.6206 49.9526 66.5084 52.0648C64.3962 54.1214 63.3401 57.0952 63.3401 60.986V61.8198C63.3401 65.7106 64.3962 68.7122 66.5084 70.8244C68.6206 72.881 71.2886 73.9093 74.5125 73.9093ZM121.395 83.2473C117.282 83.2473 113.586 82.4136 110.306 80.7461C107.027 79.0786 104.442 76.6607 102.552 73.4924C100.662 70.3241 99.7174 66.5166 99.7174 62.0699V60.7359C99.7174 56.2892 100.662 52.4817 102.552 49.3134C104.442 46.1451 107.027 43.7272 110.306 42.0597C113.586 40.3922 117.282 39.5585 121.395 39.5585C125.508 39.5585 129.205 40.3922 132.484 42.0597C135.763 43.7272 138.348 46.1451 140.238 49.3134C142.128 52.4817 143.073 56.2892 143.073 60.7359V62.0699C143.073 66.5166 142.128 70.3241 140.238 73.4924C138.348 76.6607 135.763 79.0786 132.484 80.7461C129.205 82.4136 125.508 83.2473 121.395 83.2473ZM121.395 73.9093C124.619 73.9093 127.287 72.881 129.399 70.8244C131.511 68.7122 132.567 65.7106 132.567 61.8198V60.986C132.567 57.0952 131.511 54.1214 129.399 52.0648C127.343 49.9526 124.674 48.8965 121.395 48.8965C118.171 48.8965 115.503 49.9526 113.391 52.0648C111.279 54.1214 110.223 57.0952 110.223 60.986V61.8198C110.223 65.7106 111.279 68.7122 113.391 70.8244C115.503 72.881 118.171 73.9093 121.395 73.9093ZM163.14 82.0801C160.416 82.0801 158.193 81.2463 156.47 79.5788C154.802 77.8557 153.968 75.5768 153.968 72.742V49.3968H143.63V40.7257H153.968V27.8859H164.474V40.7257H175.813V49.3968H164.474V70.9077C164.474 72.5752 165.252 73.409 166.808 73.409H174.812V82.0801H163.14ZM181.153 82.0801V40.7257H191.659V82.0801H181.153ZM186.406 35.8899C184.516 35.8899 182.904 35.2785 181.57 34.0557C180.292 32.8328 179.653 31.2209 179.653 29.2199C179.653 27.2189 180.292 25.6069 181.57 24.3841C182.904 23.1612 184.516 22.5498 186.406 22.5498C188.351 22.5498 189.963 23.1612 191.242 24.3841C192.52 25.6069 193.159 27.2189 193.159 29.2199C193.159 31.2209 192.52 32.8328 191.242 34.0557C189.963 35.2785 188.351 35.8899 186.406 35.8899ZM211.971 83.2473C209.025 83.2473 206.385 82.7471 204.05 81.7466C201.716 80.6905 199.854 79.1897 198.464 77.2443C197.13 75.2433 196.463 72.8254 196.463 69.9906C196.463 67.1558 197.13 64.7935 198.464 62.9037C199.854 60.9582 201.744 59.513 204.134 58.5681C206.579 57.5676 209.359 57.0674 212.471 57.0674H223.81V54.7328C223.81 52.7874 223.199 51.2033 221.976 49.9804C220.753 48.702 218.808 48.0628 216.14 48.0628C213.527 48.0628 211.582 48.6742 210.304 49.897C209.025 51.0643 208.191 52.5929 207.802 54.4827L198.131 51.2311C198.798 49.1189 199.854 47.2012 201.299 45.4781C202.8 43.6995 204.773 42.2821 207.219 41.226C209.72 40.1143 212.749 39.5585 216.307 39.5585C221.754 39.5585 226.062 40.9203 229.23 43.6439C232.398 46.3675 233.982 50.3139 233.982 55.4832V70.9077C233.982 72.5752 234.76 73.409 236.317 73.409H239.652V82.0801H232.648C230.592 82.0801 228.896 81.5798 227.562 80.5793C226.228 79.5788 225.561 78.2448 225.561 76.5773V76.4939H223.977C223.755 77.1609 223.255 78.0503 222.476 79.1619C221.698 80.218 220.475 81.1629 218.808 81.9967C217.14 82.8305 214.861 83.2473 211.971 83.2473ZM213.805 74.743C216.751 74.743 219.141 73.937 220.976 72.3251C222.865 70.6576 223.81 68.462 223.81 65.7384V64.9047H213.222C211.276 64.9047 209.748 65.3216 208.636 66.1553C207.524 66.9891 206.969 68.1563 206.969 69.6571C206.969 71.1579 207.552 72.3807 208.719 73.3256C209.887 74.2706 211.582 74.743 213.805 74.743Z" fill="#FF4D06"/>
<path d="M5.99393 109.839L9.07893 98.1025H12.9352L16.0202 109.839H13.74L13.1028 107.257H8.91126L8.27415 109.839H5.99393ZM9.43102 105.211H12.5831L11.1579 99.4941H10.8562L9.43102 105.211ZM17.425 109.839V98.1025H22.2537C22.9914 98.1025 23.6397 98.2534 24.1986 98.5552C24.7686 98.8458 25.2101 99.2593 25.5231 99.7959C25.8473 100.332 26.0093 100.97 26.0093 101.707V101.942C26.0093 102.668 25.8417 103.306 25.5063 103.853C25.1822 104.39 24.7351 104.809 24.165 105.111C23.6062 105.401 22.969 105.547 22.2537 105.547H19.6381V109.839H17.425ZM19.6381 103.535H22.0357C22.5611 103.535 22.9858 103.389 23.31 103.099C23.6341 102.808 23.7962 102.411 23.7962 101.908V101.741C23.7962 101.238 23.6341 100.841 23.31 100.55C22.9858 100.26 22.5611 100.114 22.0357 100.114H19.6381V103.535ZM27.5437 109.839V98.1025H32.3724C33.1101 98.1025 33.7584 98.2534 34.3173 98.5552C34.8873 98.8458 35.3289 99.2593 35.6418 99.7959C35.966 100.332 36.128 100.97 36.128 101.707V101.942C36.128 102.668 35.9604 103.306 35.6251 103.853C35.3009 104.39 34.8538 104.809 34.2838 105.111C33.7249 105.401 33.0878 105.547 32.3724 105.547H29.7569V109.839H27.5437ZM29.7569 103.535H32.1544C32.6798 103.535 33.1045 103.389 33.4287 103.099C33.7528 102.808 33.9149 102.411 33.9149 101.908V101.741C33.9149 101.238 33.7528 100.841 33.4287 100.55C33.1045 100.26 32.6798 100.114 32.1544 100.114H29.7569V103.535ZM41.5842 109.839V107.894H43.1267V100.047H41.5842V98.1025H46.4128C47.9889 98.1025 49.1849 98.5049 50.0008 99.3096C50.828 100.103 51.2415 101.288 51.2415 102.864V105.077C51.2415 106.653 50.828 107.844 50.0008 108.648C49.1849 109.442 47.9889 109.839 46.4128 109.839H41.5842ZM45.3398 107.827H46.4464C47.3406 107.827 47.9945 107.592 48.408 107.123C48.8216 106.653 49.0284 105.994 49.0284 105.144V102.797C49.0284 101.936 48.8216 101.277 48.408 100.819C47.9945 100.349 47.3406 100.114 46.4464 100.114H45.3398V107.827ZM53.0861 109.839V98.1025H60.6309V100.114H55.2992V102.914H60.1615V104.926H55.2992V107.827H60.7315V109.839H53.0861ZM64.5494 109.839L61.565 98.1025H63.8452L66.3266 108.414H66.5613L69.0427 98.1025H71.323L68.3386 109.839H64.5494ZM72.7341 109.839V98.1025H80.2789V100.114H74.9472V102.914H79.8094V104.926H74.9472V107.827H80.3795V109.839H72.7341ZM82.0177 109.839V98.1025H84.2309V107.827H89.5961V109.839H82.0177ZM95.2724 110.074C93.797 110.074 92.6233 109.671 91.7515 108.866C90.8796 108.05 90.4437 106.888 90.4437 105.379V102.562C90.4437 101.053 90.8796 99.8965 91.7515 99.0917C92.6233 98.2757 93.797 97.8677 95.2724 97.8677C96.7478 97.8677 97.9215 98.2757 98.7933 99.0917C99.6652 99.8965 100.101 101.053 100.101 102.562V105.379C100.101 106.888 99.6652 108.05 98.7933 108.866C97.9215 109.671 96.7478 110.074 95.2724 110.074ZM95.2724 108.095C96.0995 108.095 96.7422 107.855 97.2005 107.374C97.6588 106.894 97.8879 106.251 97.8879 105.446V102.495C97.8879 101.69 97.6588 101.048 97.2005 100.567C96.7422 100.086 96.0995 99.8462 95.2724 99.8462C94.4564 99.8462 93.8137 100.086 93.3443 100.567C92.886 101.048 92.6569 101.69 92.6569 102.495V105.446C92.6569 106.251 92.886 106.894 93.3443 107.374C93.8137 107.855 94.4564 108.095 95.2724 108.095ZM102.042 109.839V98.1025H106.871C107.609 98.1025 108.257 98.2534 108.816 98.5552C109.386 98.8458 109.827 99.2593 110.14 99.7959C110.465 100.332 110.627 100.97 110.627 101.707V101.942C110.627 102.668 110.459 103.306 110.124 103.853C109.8 104.39 109.352 104.809 108.782 105.111C108.223 105.401 107.586 105.547 106.871 105.547H104.255V109.839H102.042ZM104.255 103.535H106.653C107.178 103.535 107.603 103.389 107.927 103.099C108.251 102.808 108.413 102.411 108.413 101.908V101.741C108.413 101.238 108.251 100.841 107.927 100.55C107.603 100.26 107.178 100.114 106.653 100.114H104.255V103.535ZM112.161 109.839V98.1025H116.269L118.297 108.33H118.599L120.628 98.1025H124.736V109.839H122.59V99.7288H122.288L120.276 109.839H116.621L114.609 99.7288H114.307V109.839H112.161ZM126.946 109.839V98.1025H134.491V100.114H129.159V102.914H134.022V104.926H129.159V107.827H134.592V109.839H126.946ZM136.23 109.839V98.1025H140.438L142.769 108.33H143.07V98.1025H145.25V109.839H141.042L138.711 99.6114H138.409V109.839H136.23ZM150.178 109.839V100.114H146.758V98.1025H155.812V100.114H152.391V109.839H150.178ZM160.733 109.839V107.894H162.275V100.047H160.733V98.1025H166.769C167.484 98.1025 168.104 98.2254 168.63 98.4713C169.166 98.7061 169.58 99.047 169.87 99.4941C170.172 99.93 170.323 100.455 170.323 101.07V101.238C170.323 101.774 170.223 102.216 170.021 102.562C169.82 102.898 169.58 103.16 169.3 103.35C169.032 103.529 168.775 103.658 168.529 103.736V104.038C168.775 104.105 169.043 104.233 169.334 104.423C169.625 104.602 169.87 104.865 170.072 105.211C170.284 105.558 170.39 106.011 170.39 106.569V106.737C170.39 107.385 170.239 107.944 169.937 108.414C169.636 108.872 169.217 109.224 168.68 109.47C168.155 109.716 167.54 109.839 166.836 109.839H160.733ZM164.488 107.827H166.567C167.048 107.827 167.434 107.71 167.724 107.475C168.026 107.24 168.177 106.905 168.177 106.469V106.301C168.177 105.865 168.032 105.53 167.741 105.295C167.451 105.06 167.059 104.943 166.567 104.943H164.488V107.827ZM164.488 102.931H166.534C166.992 102.931 167.367 102.814 167.657 102.579C167.959 102.344 168.11 102.02 168.11 101.607V101.439C168.11 101.014 167.965 100.69 167.674 100.467C167.383 100.232 167.003 100.114 166.534 100.114H164.488V102.931ZM176.762 110.074C175.287 110.074 174.113 109.671 173.241 108.866C172.37 108.05 171.934 106.888 171.934 105.379V102.562C171.934 101.053 172.37 99.8965 173.241 99.0917C174.113 98.2757 175.287 97.8677 176.762 97.8677C178.238 97.8677 179.411 98.2757 180.283 99.0917C181.155 99.8965 181.591 101.053 181.591 102.562V105.379C181.591 106.888 181.155 108.05 180.283 108.866C179.411 109.671 178.238 110.074 176.762 110.074ZM176.762 108.095C177.59 108.095 178.232 107.855 178.691 107.374C179.149 106.894 179.378 106.251 179.378 105.446V102.495C179.378 101.69 179.149 101.048 178.691 100.567C178.232 100.086 177.59 99.8462 176.762 99.8462C175.946 99.8462 175.304 100.086 174.834 100.567C174.376 101.048 174.147 101.69 174.147 102.495V105.446C174.147 106.251 174.376 106.894 174.834 107.374C175.304 107.855 175.946 108.095 176.762 108.095ZM188.059 110.074C187.098 110.074 186.271 109.9 185.578 109.554C184.896 109.196 184.371 108.693 184.002 108.045C183.644 107.385 183.465 106.609 183.465 105.714V98.1025H185.678V105.781C185.678 106.497 185.88 107.061 186.282 107.475C186.696 107.888 187.288 108.095 188.059 108.095C188.83 108.095 189.417 107.888 189.82 107.475C190.233 107.061 190.44 106.497 190.44 105.781V98.1025H192.653V105.714C192.653 106.609 192.469 107.385 192.1 108.045C191.742 108.693 191.217 109.196 190.524 109.554C189.842 109.9 189.02 110.074 188.059 110.074ZM197.513 109.839V100.114H194.093V98.1025H203.147V100.114H199.726V109.839H197.513ZM204.654 109.839V98.1025H206.867V109.839H204.654ZM213.635 110.074C212.16 110.074 210.986 109.671 210.114 108.866C209.242 108.05 208.806 106.888 208.806 105.379V102.562C208.806 101.053 209.242 99.8965 210.114 99.0917C210.986 98.2757 212.16 97.8677 213.635 97.8677C215.111 97.8677 216.284 98.2757 217.156 99.0917C218.028 99.8965 218.464 101.053 218.464 102.562V105.379C218.464 106.888 218.028 108.05 217.156 108.866C216.284 109.671 215.111 110.074 213.635 110.074ZM213.635 108.095C214.462 108.095 215.105 107.855 215.563 107.374C216.022 106.894 216.251 106.251 216.251 105.446V102.495C216.251 101.69 216.022 101.048 215.563 100.567C215.105 100.086 214.462 99.8462 213.635 99.8462C212.819 99.8462 212.176 100.086 211.707 100.567C211.249 101.048 211.02 101.69 211.02 102.495V105.446C211.02 106.251 211.249 106.894 211.707 107.374C212.176 107.855 212.819 108.095 213.635 108.095ZM214.406 112.857C213.859 112.857 213.412 112.684 213.065 112.337C212.73 112.002 212.562 111.549 212.562 110.979V109.839H214.708V110.644C214.708 110.979 214.865 111.147 215.178 111.147H216.167V112.857H214.406ZM224.932 110.074C223.971 110.074 223.144 109.9 222.451 109.554C221.769 109.196 221.243 108.693 220.874 108.045C220.517 107.385 220.338 106.609 220.338 105.714V98.1025H222.551V105.781C222.551 106.497 222.752 107.061 223.155 107.475C223.568 107.888 224.161 108.095 224.932 108.095C225.703 108.095 226.29 107.888 226.692 107.475C227.106 107.061 227.313 106.497 227.313 105.781V98.1025H229.526V105.714C229.526 106.609 229.341 107.385 228.973 108.045C228.615 108.693 228.09 109.196 227.397 109.554C226.715 109.9 225.893 110.074 224.932 110.074ZM231.67 109.839V98.1025H239.215V100.114H233.883V102.914H238.745V104.926H233.883V107.827H239.315V109.839H231.67Z" fill="#2C2C2C"/>
</svg>
