<svg width="81" height="38" viewBox="0 0 81 38" fill="none" xmlns="http://www.w3.org/2000/svg">
<path d="M16.2535 14.5644H19.0595V31.3435H16.2535V14.5644Z" fill="white"/>
<path d="M28.8195 26.0264C28.8195 28.626 26.6235 28.8623 25.8915 28.8623C24.1835 28.8623 23.9395 27.3262 23.9395 26.499V20H21.1335V26.3809C21.1335 27.917 21.6215 29.335 22.5975 30.1621C23.4515 30.9893 24.5495 31.3437 25.8915 31.3437C26.8675 31.3437 28.0875 31.1074 28.8195 30.3984V31.3437H31.6255V20H28.8195V26.0264Z" fill="white"/>
<path d="M37.1155 15.8642H34.3095V19.9999H32.2355V22.5995H34.3095V31.3435H37.1155V22.5995H39.1895V19.9999H37.1155V15.8642Z" fill="white"/>
<path d="M60.1735 20.9452C59.3195 20.1181 58.4655 19.7636 57.1235 19.7636C56.1475 19.7636 55.1715 19.9999 54.4395 20.7089V14.5644H51.6335V31.3435H54.4395V25.0809C54.4395 22.4813 56.2695 22.245 57.0015 22.245C58.7095 22.245 58.5875 23.7811 58.5875 24.6082V31.2253H61.3935V24.7264C61.3935 23.1903 61.0275 21.7723 60.1735 20.9452Z" fill="white"/>
<path d="M47.9734 27.917C47.3634 28.3896 46.5094 28.7441 45.6554 28.7441C43.7034 28.7441 42.3614 27.3262 42.3614 25.4355C42.3614 23.5449 43.7034 22.2451 45.6554 22.2451C46.5094 22.2451 47.3634 22.4814 47.9734 23.0723L48.3394 23.4267L50.2914 21.6543L49.8034 21.2998C48.6612 20.3136 47.1855 19.7671 45.6554 19.7637C42.2394 19.7637 39.6774 22.2451 39.6774 25.5537C39.6774 28.8623 42.2394 31.3437 45.6554 31.3437C47.1855 31.3403 48.6612 30.7938 49.8034 29.8076L50.2914 29.4531L48.3394 27.5625L47.9734 27.917Z" fill="white"/>
<path d="M45.5337 27.4443C46.6118 27.4443 47.4857 26.5979 47.4857 25.5537C47.4857 24.5095 46.6118 23.6631 45.5337 23.6631C44.4557 23.6631 43.5817 24.5095 43.5817 25.5537C43.5817 26.5979 44.4557 27.4443 45.5337 27.4443Z" fill="white"/>
<path d="M12.3495 27.2078C11.3735 28.1531 9.90955 28.7439 8.32355 28.7439C5.27355 28.7439 3.07755 26.3807 3.07755 23.1903C3.07755 19.9999 5.27355 17.6366 8.44555 17.6366C9.96033 17.652 11.4074 18.2466 12.4715 19.2909L12.8375 19.6454L14.6675 17.8729L14.3015 17.5185C13.5359 16.7683 12.6239 16.173 11.6186 15.7673C10.6132 15.3616 9.53465 15.1535 8.44555 15.1552C3.80955 15.037 0.393555 18.5819 0.393555 23.1903C0.393555 27.7986 3.80955 31.3435 8.32355 31.3435C10.5195 31.3435 12.7155 30.5164 14.1795 28.9802L14.5455 28.6258L12.7155 26.8533L12.3495 27.2078Z" fill="white"/>
<path d="M70.9334 22.34L78.4934 25.13L78.4934 27.47L70.9334 30.26L70.9334 28.406L76.6574 26.444L76.6574 26.156L70.9334 24.194L70.9334 22.34Z" fill="#FF4D06"/>
</svg>
