<svg width="61" height="18" viewBox="0 0 61 18" fill="none" xmlns="http://www.w3.org/2000/svg">
<path d="M15.8599 0.600586H18.6659V17.9246H15.8599V0.600586Z" fill="#FF4D06"/>
<path d="M28.426 12.4346C28.426 15.1186 26.23 15.3626 25.498 15.3626C23.79 15.3626 23.546 13.7766 23.546 12.9226V6.21265H20.74V12.8006C20.74 14.3866 21.228 15.8506 22.204 16.7046C23.058 17.5586 24.156 17.9246 25.498 17.9246C26.474 17.9246 27.694 17.6806 28.426 16.9486V17.9246H31.232V6.21265H28.426V12.4346Z" fill="#FF4D06"/>
<path d="M36.722 1.9425H33.916V6.2125H31.842V8.8965H33.916V17.9245H36.722V8.8965H38.796V6.2125H36.722V1.9425Z" fill="#FF4D06"/>
<path d="M59.78 7.18859C58.926 6.33459 58.072 5.96859 56.73 5.96859C55.754 5.96859 54.7779 6.21259 54.0459 6.94459V0.600586H51.24V17.9246H54.0459V11.4586C54.0459 8.77459 55.876 8.53059 56.608 8.53059C58.316 8.53059 58.194 10.1166 58.194 10.9706V17.8026H61V11.0926C61 9.50659 60.634 8.04259 59.78 7.18859Z" fill="#FF4D06"/>
<path d="M47.5798 14.3866C46.9698 14.8746 46.1158 15.2406 45.2618 15.2406C43.3098 15.2406 41.9678 13.7766 41.9678 11.8246C41.9678 9.87263 43.3098 8.53063 45.2618 8.53063C46.1158 8.53063 46.9698 8.77463 47.5798 9.38463L47.9458 9.75063L49.8978 7.92063L49.4098 7.55463C48.2676 6.53645 46.7919 5.9722 45.2618 5.96863C41.8458 5.96863 39.2838 8.53063 39.2838 11.9466C39.2838 15.3626 41.8458 17.9246 45.2618 17.9246C46.7919 17.9211 48.2676 17.3568 49.4098 16.3386L49.8978 15.9726L47.9458 14.0206L47.5798 14.3866Z" fill="#FF4D06"/>
<path d="M45.1402 13.8986C46.2182 13.8986 47.0922 13.0247 47.0922 11.9466C47.0922 10.8686 46.2182 9.99463 45.1402 9.99463C44.0621 9.99463 43.1882 10.8686 43.1882 11.9466C43.1882 13.0247 44.0621 13.8986 45.1402 13.8986Z" fill="#FF4D06"/>
<path d="M11.956 13.6545C10.98 14.6305 9.516 15.2405 7.93 15.2405C4.88 15.2405 2.684 12.8005 2.684 9.50648C2.684 6.21248 4.88 3.77248 8.052 3.77248C9.56678 3.78837 11.0139 4.40229 12.078 5.48048L12.444 5.84648L14.274 4.01648L13.908 3.65048C13.1424 2.87593 12.2303 2.26133 11.225 1.84245C10.2197 1.42356 9.1411 1.20874 8.052 1.21048C3.416 1.08848 0 4.74848 0 9.50648C0 14.2645 3.416 17.9245 7.93 17.9245C10.126 17.9245 12.322 17.0705 13.786 15.4845L14.152 15.1185L12.322 13.2885L11.956 13.6545Z" fill="#FF4D06"/>
</svg>
