<svg xmlns="http://www.w3.org/2000/svg" viewBox="0 0 18.83 20.34"><defs><style>.cls-1{fill:#ff4d06;}</style></defs><title>icon-bootia</title><g id="Capa_2" data-name="Capa 2"><g id="Capa_1-2" data-name="Capa 1"><path class="cls-1" d="M14.72,14.32a7,7,0,0,1-4.12,1.45A5.62,5.62,0,0,1,4.76,10c0-3.32,2.38-5.6,5.84-5.6a5.87,5.87,0,0,1,4.12,1.45l.64.62,3.47-3.11L18,2.7A11.39,11.39,0,0,0,10.6,0C4.54,0,0,4.36,0,10.17S4.54,20.34,10.6,20.34A11.39,11.39,0,0,0,18,17.64l.87-.62L15.36,13.7Z"/><path class="cls-1" d="M10.32,13.33A3.39,3.39,0,0,0,13.76,10a3.39,3.39,0,0,0-3.44-3.33A3.39,3.39,0,0,0,6.88,10,3.39,3.39,0,0,0,10.32,13.33Z"/></g></g></svg>