<?xml version="1.0" encoding="UTF-8"?> <svg xmlns="http://www.w3.org/2000/svg" width="120" height="290" viewBox="0 0 120 290" fill="none"><path d="M119.784 0.908355L120.784 0.908355L120.784 -0.0916446L119.784 -0.0916447L119.784 0.908355ZM119.784 32.0123L119.784 33.0123L120.784 33.0123L120.784 32.0123L119.784 32.0123ZM70.536 135.98L71.2586 136.672L71.2666 136.663L71.2745 136.655L70.536 135.98ZM49.512 142.604L49.512 141.604L48.512 141.604L48.512 142.604L49.512 142.604ZM49.512 147.788L48.512 147.788L48.512 148.788L49.512 148.788L49.512 147.788ZM70.536 154.412L71.2745 153.738L71.2666 153.73L71.2586 153.721L70.536 154.412ZM119.784 258.38L120.784 258.38L120.784 257.38L119.784 257.38L119.784 258.38ZM119.784 289.484L119.784 290.484L120.784 290.484L120.784 289.484L119.784 289.484ZM49.8 281.132L50.5194 280.438L50.5072 280.425L50.4946 280.413L49.8 281.132ZM0.551979 162.476L-0.448021 162.476L-0.448021 163.476L0.551979 163.476L0.551979 162.476ZM0.551981 127.916L0.551981 126.916L-0.448019 126.916L-0.448019 127.916L0.551981 127.916ZM49.8 9.26034L50.4946 9.97973L50.5072 9.96755L50.5194 9.95492L49.8 9.26034ZM118.784 0.908355L118.784 32.0123L120.784 32.0123L120.784 0.908355L118.784 0.908355ZM119.784 31.0123L84.36 31.0123L84.36 33.0123L119.784 33.0123L119.784 31.0123ZM84.36 31.0123C81.585 31.0123 79.3285 31.788 77.7847 33.5034C76.2589 35.1987 75.584 37.6427 75.584 40.6523L77.584 40.6523C77.584 37.902 78.2051 36.026 79.2713 34.8413C80.3194 33.6767 81.9509 33.0123 84.36 33.0123L84.36 31.0123ZM75.584 40.6523L75.584 119.564L77.584 119.564L77.584 40.6523L75.584 40.6523ZM75.584 119.564C75.584 125.868 73.6452 131.092 69.7975 135.306L71.2745 136.655C75.4907 132.037 77.584 126.317 77.584 119.564L75.584 119.564ZM69.8133 135.289C65.7978 139.487 60.5972 141.604 54.12 141.604L54.12 143.604C61.0828 143.604 66.8261 141.306 71.2586 136.672L69.8133 135.289ZM54.12 141.604L49.512 141.604L49.512 143.604L54.12 143.604L54.12 141.604ZM48.512 142.604L48.512 147.788L50.512 147.788L50.512 142.604L48.512 142.604ZM49.512 148.788L54.12 148.788L54.12 146.788L49.512 146.788L49.512 148.788ZM54.12 148.788C60.5972 148.788 65.7978 150.906 69.8133 155.104L71.2586 153.721C66.8261 149.087 61.0828 146.788 54.12 146.788L54.12 148.788ZM69.7975 155.087C73.6452 159.301 75.584 164.525 75.584 170.828L77.584 170.828C77.584 164.076 75.4907 158.356 71.2745 153.738L69.7975 155.087ZM75.584 170.828L75.584 249.74L77.584 249.74L77.584 170.828L75.584 170.828ZM75.584 249.74C75.584 252.75 76.2589 255.194 77.7847 256.889C79.3285 258.605 81.585 259.38 84.36 259.38L84.36 257.38C81.9509 257.38 80.3194 256.716 79.2713 255.551C78.2051 254.367 77.584 252.491 77.584 249.74L75.584 249.74ZM84.36 259.38L119.784 259.38L119.784 257.38L84.36 257.38L84.36 259.38ZM118.784 258.38L118.784 289.484L120.784 289.484L120.784 258.38L118.784 258.38ZM119.784 288.484L70.824 288.484L70.824 290.484L119.784 290.484L119.784 288.484ZM70.824 288.484C62.4206 288.484 55.6841 285.787 50.5194 280.438L49.0806 281.827C54.6678 287.614 61.9474 290.484 70.824 290.484L70.824 288.484ZM50.4946 280.413C45.1454 275.248 42.448 268.512 42.448 260.108L40.448 260.108C40.448 268.985 43.3186 276.264 49.1054 281.852L50.4946 280.413ZM42.448 260.108L42.448 170.828L40.448 170.828L40.448 260.108L42.448 260.108ZM42.448 170.828C42.448 167.907 41.7695 165.53 40.2359 163.883C38.6897 162.222 36.4372 161.476 33.672 161.476L33.672 163.476C36.0908 163.476 37.7263 164.122 38.7721 165.246C39.8304 166.383 40.448 168.181 40.448 170.828L42.448 170.828ZM33.672 161.476L0.551979 161.476L0.551979 163.476L33.672 163.476L33.672 161.476ZM1.55198 162.476L1.55198 127.916L-0.448019 127.916L-0.448021 162.476L1.55198 162.476ZM0.551981 128.916L33.672 128.916L33.672 126.916L0.551981 126.916L0.551981 128.916ZM33.672 128.916C36.4372 128.916 38.6897 128.17 40.2359 126.51C41.7695 124.863 42.448 122.485 42.448 119.564L40.448 119.564C40.448 122.211 39.8304 124.01 38.7721 125.147C37.7263 126.27 36.0908 126.916 33.672 126.916L33.672 128.916ZM42.448 119.564L42.448 30.2843L40.448 30.2843L40.448 119.564L42.448 119.564ZM42.448 30.2843C42.448 21.8809 45.1454 15.1445 50.4946 9.97973L49.1054 8.54095C43.3186 14.1282 40.448 21.4077 40.448 30.2843L42.448 30.2843ZM50.5194 9.95492C55.6841 4.60574 62.4206 1.90835 70.824 1.90835L70.824 -0.0916496C61.9474 -0.0916505 54.6679 2.77892 49.0806 8.56576L50.5194 9.95492ZM70.824 1.90835L119.784 1.90836L119.784 -0.0916447L70.824 -0.0916496L70.824 1.90835Z" fill="#C4C4C4"></path></svg> 